<svg xmlns="http://www.w3.org/2000/svg" width="666.667" height="666.667" version="1.0" viewBox="0 0 500 500"><path d="M235 57.9c0 .5-1.5.8-3.2.6-1.8-.1-6 .1-9.3.6s-8.5 1.2-11.5 1.5-5.6.9-5.8 1.4c-.2.4-1.1.6-2 .4-.9-.3-4.2.4-7.4 1.5-3.1 1.1-5.9 1.7-6.2 1.4s-1.3 0-2.3.8c-1.5 1.2-1.6 1.2-.8-.1s.7-1.3-.9 0c-1 .8-2.5 1.6-3.5 1.7-.9.2-2.5.5-3.6.7-3.3.6-8.5 3-8.5 3.9 0 .4-.4.6-.9.3-.5-.4-2.2-.1-3.8.6-1.5.6-3 1.2-3.4 1.2-.7.1-16.8 7.4-19.3 8.8-1 .5-3.5 1.9-5.5 3-2 1.2-5.7 3.3-8.2 4.7-2.6 1.4-5.9 3.6-7.5 4.9-1.6 1.2-5.1 3.7-7.9 5.4-4.5 2.9-15.5 11.6-18 14.4-.5.6-3.2 2.8-5.9 5-13.5 10.7-33.2 35.4-43.1 53.9-2 3.8-4.1 7.5-4.6 8.1s-1 2.1-1.2 3.3c-.2 1.3-.8 2.6-1.4 2.9-.9.7-8.8 16-8.8 17.4 0 .3-.3 1-.8 1.4-.4.4-.7 1.5-.7 2.4 0 1-1.1 4.2-2.4 7.1-1.4 3-2.6 6.5-2.8 7.9s-.8 3.2-1.3 4-1 1.9-1.1 2.5c-.1.5-.5 2.6-.8 4.5s-.7 4.4-.9 5.5c-.1 1.1-.6 2.3-1.1 2.6-.4.4-1 2.8-1.3 5.5-.2 2.6-.8 5.3-1.3 6-.6.6-.7 1.4-.3 1.8s.1 1.1-.7 1.6c-.8.6-1 1-.5 1 1.2 0 1.2 5.1 0 6.9-.4.8-1 3.7-1.2 6.5s-.6 5.6-.8 6.3c-.2.6.1 1.4.8 1.7.7.2.7.5.1.5-1.2.1-1.1 12.2.1 14.2.6.8.4 1-.5.4-1-.6-1.2-.4-.7.8.4 1 .1 1.7-.6 1.7-.8 0-.6.4.3 1 1.3.9 1.3 1 0 1-.9 0-1.1.3-.5.8 1.4.9 1.7 5.2.4 5.2-.6 0-.7.5-.4 1 .4.6 1.2.7 1.8.3.7-.4.6 0-.2 1-.7.9-1 1.7-.5 1.7s.2.5-.6 1c-1.1.7-1.1 1-.2 1 .8 0 1 .5.5 1.2-1 1.8-1.3 3.9-.4 3.3.4-.2.9 1.7 1 4.2 0 2.5.6 5.2 1.2 5.9.7.9.5 1.5-.8 2.3-1.7 1-1.7 1 0 1.1 2 0 2.4 3.9.5 5.9-1 1.1-1 1.4 0 1.8.6.3 1.2.9 1.2 1.5s-.7.7-1.6.4c-.8-.3-1.3-.2-1 .3s-.1 1.2-1 1.5c-1.2.4-1.4.1-.9-1.3.4-1.4-.1-2.3-1.6-3.1s-1.9-.9-1.5-.1c.4.6.1 1.2-.6 1.2-.7.1-1.7.2-2.3.4-.5.1-1.6.3-2.4.3-.8.1-.5.9 1 2.2 1.3 1 1.9 1.9 1.2 2-.6 0-1.5-.5-1.8-1-.3-.6-1.2-1-1.8-1-.7 0 0 .8 1.5 1.8 3.1 1.9 3.6 2.9 1.3 2.9-.8 0-1.5-.4-1.5-.9 0-.4-.5-.8-1.1-.8-.8 0-.8.5.1 1.5 1 1.2 1 1.5-.1 1.5-.9 0-1 .3-.4.8 1.2.9 2 4.6.8 3.9-1.1-.7-1 9.4.1 11.2.6 1 .6 1.2-.2.7-.7-.4-1.2-.2-1.2.3 0 .6.6 1.1 1.3 1.1s.8.3.2.8c-1.5 1-1.5 5.4 0 4.9.6-.3 1.2.1 1.2.8s-.5 1.1-1.2.9c-.8-.3-1.2 12-1.4 46.1L-.1 466h500.2l-.2-55.5c-.2-38.9-.6-55.5-1.3-55.5-.8 0-.8-.2 0-.8 1.2-.8 1.3-12 .1-14-.5-.6-.4-1.2.1-1.2.6 0 .9-1.1.8-2.4-.1-1.9-.4-2.2-1.7-1.5-.9.4-1.9.5-2.3.2-.3-.3-.6-.1-.6.6s.7 1.1 1.5.8c.8-.4 1.7-.1 2.1.5s.3.8-.2.5c-.6-.3-1.6-.2-2.4.4-1.3.7-1.3.9 0 .9 1.2 0 1.2.2.1.9-.9.6-1 1.1-.2 1.5.6.4 1.1.2 1.1-.4s.5-.8 1.1-.4c.8.4.6 1-.7 1.7s-1.9.7-2.2-.1c-.2-.7-.8-1-1.2-.7-.5.3-.7 1.2-.4 1.9.3.8 0 1.7-.6 2.1-.9.6-.9 1 .1 1.7s.8.8-.8.3c-1.5-.4-2.6.1-3.7 1.7-.9 1.2-1.6 1.7-1.6 1.1s1.4-2.3 3.2-3.7 2.9-2.8 2.5-3.3c-.5-.4-1.2-.2-1.6.6-.6 1-1 .9-1.5-.4-.5-1.5-.9-1.4-3.8.5l-3.3 2.2 3-2.6c1.7-1.4 3.4-2.6 3.8-2.6.5 0 .5-.5.2-1-.4-.6-1.9-.2-3.8 1.2-1.8 1.2-2.6 1.5-2 .7.7-.9 1.1-1.9.8-2.2-.3-.4-.2-.5.1-.2.8.5 6.4-2.6 6.4-3.5 0-1.3-2.9-.6-3.4.7-.8 1.9-2.6 1.6-2.6-.5 0-1.2.3-1.3.8-.5.6.9 1.1.6 2-.8 1.2-1.9 1.1-2-.9-1.4-1.7.6-2 .4-1.3-.6 1.1-1.7 1.6-3.8 1.5-6.4 0-1.9 1.5-3.5 3.3-3.5.5 0 .1.9-.9 2-1.8 2-1.8 2.1.1 1.4 1.8-.7 1.8-.7.1 1.3-.9 1.1-1.4 2.3-1 2.8.5.4.2.5-.6 0-1-.5-1.2-.4-.7.4.4.6 1.2.8 1.8.5.6-.4.8-.3.5.2-.3.6.3 1 1.3 1.1 1.1.1 2.2-.3 2.5-.8.4-.5 1.1-.7 1.6-.3.5.3.6 1 .3 1.6-.5.7-.2.8.6.3.9-.6 1.1-.4.5.6-.8 1.2-.6 1.2.8 0 1.1-.9 1.5-2.1 1.1-3.4-.3-1.1-.2-1.7.2-1.4.5.3.9-.5.9-1.8s-.3-2.1-.7-1.8c-.5.2-.8 1.1-.8 1.8 0 .9-.6 1.2-1.6.8-1-.3-1.2-.8-.5-1.2.6-.4.2-1.2-.9-1.9-1.2-.7-2-.8-2-.2 0 .5-.5 1-1.1 1s-.9-.6-.6-1.4-.1-2-.9-2.6c-1-.9-1.4-.9-1.4-.1 0 .6-.4 1.1-.9 1.1-1.1 0-.8-4.3.4-5.2.6-.5.6-1.1-.2-1.9s-.9-1.9-.3-3.5c.7-1.7.6-2.4-.3-2.4-.7 0-.8-.3-.2-.8 1.5-1.1 1.7-3.2.3-3.2-.6 0-.3-.7.8-1.6 1-.8 1.4-1.3.8-1-1.4.7-2.6-4.2-1.2-5 .4-.3.6-1 .2-1.5-1.1-1.8-1-14.9.1-14.9.7 0 .7-.3 0-.8-1.5-1.1-1.7-6.4-.2-5.5.9.5.9.3.1-.8-.6-.8-1.2-2.1-1.2-2.9-.2-3.1-3.1-20.6-3.7-22.5-.4-1.1-.9-2.7-1.2-3.5s-.7-2.4-.9-3.5c-.1-1.1-.5-3.4-.9-5-.4-1.7-.7-3.8-.8-4.8-.1-.9-.4-1.7-.7-1.7-.4 0-.7-.6-.8-1.3-.4-6.1-8.3-26.9-15.3-40.4-3.9-7.6-7.7-14.5-8.4-15.3s-2.3-3.5-3.6-5.9c-4.3-7.9-5.4-9.7-6.6-11.2-.7-.8-4-4.8-7.3-8.9-5.8-7.1-29.3-31.4-33-34.2-.9-.7-5.2-4-9.5-7.3-17.8-13.7-39-26.1-54-31.5-7.9-2.8-25.5-8.6-31.5-10.4-6.4-1.9-26.6-5.7-32.5-6.1-8.8-.7-18.4-.7-19.3-.1-.6.3-1.3.2-1.7-.4-.3-.5-1.1-1-1.6-1-.6 0-.8.3-.6.7.3.5-.6.8-1.9.8s-2.4-.3-2.4-.8c0-.4-.5-.7-1.1-.7-.5 0-.7.6-.3 1.2.6 1 .5 1-.7.1-1.2-1-1.8-1-2.7-.1s-1.2.9-1.2 0-.5-1-1.7-.3c-1 .5-2.6.5-4 0-1.3-.5-2.3-.5-2.3 0m259.6 268.9c-.3.5.4 1.6 1.5 2.5 1 .9 1.9 2.2 1.9 2.8 0 .7-.8.2-1.9-.9-1.8-2.2-3.8-3.1-2.6-1.3.9 1.6-1.5 2.3-3.1 1-1.4-1.2-1.4-1.5.6-3.1 2.3-1.8 4.5-2.4 3.6-1M17 337.4c0 1.1-1.9 1.5-2.5.6-.3-.5.1-1 .9-1 .9 0 1.6.2 1.6.4m-7 2.6c0 .9-1.4 1.4-3.2 1.1-.5 0-.8.4-.8 1s.7.9 1.5.6c.8-.4 1.7-.2 2.1.4.3.6 1.8.3 3.8-.9l3.2-1.9.1 3.9c.1 2.2.7 4.5 1.3 5.3.8.9.8 1.5 0 2-.6.3-.8 1.1-.4 1.6.3.5 1 .6 1.6.3.6-.4.3.4-.8 1.8-1 1.4-2.2 2.4-2.6 2.1-.5-.2-.8.1-.8.6 0 .6.5 1.1 1 1.1.6 0 1 .5 1 1.1 0 .8-.4.8-1.4 0s-1.6-.9-2.1-.1c-.3.5-.1 1 .4 1 .6 0 1.1.5 1.1 1.1 0 .8-.4.8-1.4 0-1.2-1-1.7-.9-2.4.6-.6 1-1 2.2-1.1 2.8-.1 1.5-4.6 1.2-4.7-.3-.3-2.5-.6-2.7-1.5-.7-.8 1.7-.8 1.6-.4-.7.4-1.9 0-3-1.1-3.6-1.4-.8-1.2-1 1-1 2.1 0 2.5.4 2.1 1.8-.3 1-.1 2.1.5 2.5.6.3.8 1.1.5 1.6-.4.5.3.9 1.5.9s1.9-.4 1.6-.9.4-2 1.5-3.5c2.2-2.8 1.5-3.4-1.3-1.2-1 .7-1.5 1.6-1.1 1.9.3.4.1.7-.5.7-1.2 0-1.1-3.4.1-4.6.4-.4.7-1.4.7-2.3 0-1.3-.2-1.4-.9-.2-.5.8-2.2 1.5-3.8 1.6-2.4.1-2.9-.2-2.7-1.9.1-1.2.3-2.3.5-2.6.1-.3.2-1.6.3-3 .1-1.5.7-2.5 1.6-2.5 2 0 2-3.5.1-5.9-1.5-1.8-1.5-1.9 0-1.4.9.4 2.2.2 3-.3 1.9-1.2 2.9-1.1 2.9.1m478 6c-2.4 1.5-3.7 1.1-1.6-.5 1.1-.8 2.2-1.2 2.5-.9s-.1.9-.9 1.4m11 .2c0 .6-.6.5-1.5-.2-.9-.8-1.5-.9-1.5-.2 0 .6.5 1.4 1 1.7.6.3 1 1.2.9 1.8 0 .9-.2.8-.6-.1-.2-.6-.8-1-1.2-.7-.7.3-.8-3.2-.2-4.2.3-.7 3.1 1.1 3.1 1.9m-4.3 4.5c.2.6-.1 1.4-.6 1.8-.7.4-.8 0-.4-1.1.4-1 .2-1.5-.3-1.1-.6.3-1.6.1-2.4-.4-1.1-.7-.9-.8.9-.6 1.4.2 2.7.9 2.8 1.4m-10.4.6c.7-.3.9-.3.5.2-.4.4-.2 1.5.4 2.4 1 1.2.7 1.2-.8-.2-1.1-.9-2.4-1.4-2.8-1s-.4-.1 0-1.2c.5-1.1.9-1.4 1.2-.7.2.7.9.9 1.5.5m7.2.7c.3.6-.1.7-.9.4-1.8-.7-2.1-1.4-.7-1.4.6 0 1.3.4 1.6 1m7 .8c-.3.3-1.1 0-1.8-.7-.9-1-.8-1.1.6-.5 1 .3 1.5.9 1.2 1.2m-5.3 3.5c-.7.8-1 1.6-.7 1.9.3.2-.1.5-.9.5-1.2 0-1.1-.5.2-2.3.9-1.2 1.9-2 2.1-1.8s-.1 1-.7 1.7m-8.6-.1c.3.4-.1.5-1 .4-.8-.1-1.8-.5-2.2-.8-.3-.4.1-.5 1-.4.8.1 1.8.5 2.2.8m4.9-.3c-.9.8-3.6 1-3 .2.2-.4 1.1-.8 2-.8.8 0 1.3.3 1 .6m-470 1.2c-.4.6.1 1.6 1.1 2.4 1.8 1.3 1.8 1.4.1 2.1-1 .3-2.1.4-2.4 0-.4-.3.2-.6 1.2-.6 1.8 0 1.8 0 0-1.3-1.5-1.2-1.5-3.7.1-3.7.3 0 .2.5-.1 1.1m478.9 1c.3.3-.5.5-1.9.5-1.3 0-2.2-.3-1.9-.7.4-.8 3-.6 3.8.2M3 361.4c0 .3-.4.8-1 1.1-.5.3-1 .1-1-.4 0-.6.5-1.1 1-1.1.6 0 1 .2 1 .4m12.6 3.4c-1.7 1.6-1.8 1.6-.5-.5.7-1.2 1.5-2 1.8-1.7.3.2-.3 1.2-1.3 2.2m482.7-1.3c-.3.9-.8 1.4-1 1.1-.3-.3-.2-.9.2-1.5.9-1.6 1.5-1.3.8.4m-485.6 1.7c-.3.8-.6.5-.6-.6-.1-1.1.2-1.7.5-1.3.3.3.4 1.2.1 1.9m8 .1c.1 1.1.1 1.8 0 1.6-.2-.2-.8-1.1-1.5-2-.9-1.2-.9-1.6.1-1.6.7 0 1.4.9 1.4 2M495 364c0 .5-.2 1-.4 1-.3 0-.8-.5-1.1-1-.3-.6-.1-1 .4-1 .6 0 1.1.4 1.1 1m-476.6 3.3c-.5 1.4-5.4 1.9-5.4.6 0-.5.3-.8.8-.8 2.4.4 4.2-.2 3.6-1.3-.4-.7-.3-.8.4-.4.6.4.9 1.2.6 1.9M487 366c0 .5-.5 1-1.1 1-.5 0-.7-.5-.4-1 .3-.6.8-1 1.1-1 .2 0 .4.4.4 1M4.8 368.2c-.2.6-1 1.3-1.6 1.4-.7.1-.8 0-.2-.3.5-.2.8-.9.4-1.4-.3-.5 0-.9.6-.9.7 0 1 .5.8 1.2m2.3 4c-1 1.1-1.1.9-.5-.6s.4-1.7-.6-1.1c-.9.6-1.1.4-.5-.4.5-.9 1-1 1.8-.2s.7 1.4-.2 2.3m5.3-2.4c.2.4 0 1.4-.6 2.2-.8 1.2-.9 1.2-.5-.2.3-.9.1-1.9-.6-2.2-.9-.3-.9-.5 0-.5.6-.1 1.4.3 1.7.7M22 372c.8.5 1.1 1 .5 1-.5 0-1.7-.5-2.5-1s-1-1-.5-1c.6 0 1.7.5 2.5 1m475.1 1.7c1.3 1.6 1.2 1.7-.3.4-1.7-1.3-2.2-2.1-1.4-2.1.2 0 1 .8 1.7 1.7m-487.7.1c.3.5-.1.9-.9.9s-1.2-.4-.9-.9c.3-.4.7-.8.9-.8s.6.4.9.8m6.9 1.6c.3-.3.4.1.3 1-.1.8-.6 1.9-1 2.3s-.6.1-.4-.7-.2-1.4-.8-1.3-1.1-.5-1.1-1.2c0-1 .4-1.2 1.2-.5.7.5 1.4.7 1.8.4M3 376c0 .5-.5 1-1.1 1-.5 0-.7-.5-.4-1 .3-.6.8-1 1.1-1 .2 0 .4.4.4 1m7.5 8.9c.3.5.2 1.2-.3 1.5s-.9-.1-.9-.9c0-1.7.3-1.9 1.2-.6"/><path d="M491.7 328.7c-1 .9-.9 2.3.1 2.3.5 0 .9-.7.9-1.5 0-1.7-.1-1.8-1-.8M14 344.5c.5.7.7 1.5.3 1.8-1 1.1-2.3.8-2-.4.1-.6-.8-1.2-2-1.4-1.3-.1-2.1.1-1.8.3.6.6-3.7 3.8-4.8 3.4-1.2-.4-.3 2.2 1.3 3.6.8.8 1 1.1.4.8-1.6-.8-3.5 1.7-2.5 3.3.6.9 1.1 1 1.5.2.4-.6.2-1.1-.4-1.1s-.8-.5-.4-1.1c.4-.8 1.1-.4 1.9 1.1 1.1 2.1 1.2 2.1 1.9.4.7-1.8.8-1.8 2.1 0 1.3 1.7 1.2 2.1-.3 3.2-.9.8-1.2 1.4-.5 1.4.6 0 1.5-.5 1.8-1.1.4-.6 1.3-.8 2-.5.8.3 1.7-.3 2-1.4s.9-1.9 1.3-1.9c1.9.3 2.3-.2 1.3-1.5-.8-1-.9-1.6-.2-2.1.7-.4.6-1.3-.3-2.8-.8-1.2-1.3-2.9-1.1-3.8.1-.9-.3-1.6-1.1-1.6-.9 0-1.1.4-.4 1.2m-2.4 1.4c-.3.5.1 1.4.9 2.1 1.2 1 1.5 1 1.5-.1 0-.8.6-.5 1.4.7.9 1.1 1.1 2.3.5 3-.5.6-.5 1.5.1 2.2.7.9.7.9-.2.2-1.4-1.2-2.8-1.3-2.7-.3.3 1.9-.2 3.3-1.2 3.3-.6 0-.7-.5-.2-1.3 1.3-2.1 1.2-3.6-.3-3-.8.3-1.1.9-.8 1.5.3.5-.3.4-1.5-.4L7 352.5l2.2-1.1 2.1-1.2-2.1-1.1c-1.5-.8-2.3-.8-2.8.1-.4.6-.3.8.4.4.6-.3 1.3-.2 1.7.4.3.5-.3 1-1.4 1-3.1 0-2.5-1.8 1.2-4 3.6-2.2 4.1-2.4 3.3-1.1"/><path d="M10.3 348.8c1 1 1.5 2.1 1.2 2.4-.3.2.3.4 1.3.3 2.5-.1 3.1-1.8.7-2.1-1.1-.2-2.1-.8-2.3-1.3-.2-.6-.8-1.1-1.4-1.1s-.4.8.5 1.8M495 287.9c0 .6.4 1.3 1 1.6s.7-.1.4-.9c-.7-1.8-1.4-2.1-1.4-.7m-4.1 3.8c-1.3 1.6-1.2 1.7.4.4s2.1-2.1 1.3-2.1c-.2 0-1 .8-1.7 1.7m4.1 18.8c.5.7.7 1.4.4 1.8-.3.3.1.4 1 .3.8-.1 1.9-.6 2.3-1s.1-.6-.7-.4c-.8.1-1.4-.2-1.3-.8s-.5-1.1-1.2-1.1c-1 0-1.2.4-.5 1.2m-4.9 2.1c0 1.1.3 1.4.6.6.3-.7.2-1.6-.1-1.9-.3-.4-.6.2-.5 1.3m2.5-.3c.3 1 .9 1.5 1.2 1.2s0-1.1-.7-1.8c-1-.9-1.1-.8-.5.6m4.2 3.7c-.7 1.1-1.6 2-2.1 2-.4 0-.5-.5-.1-1.2.5-.7.3-.8-.5-.3-1 .5-1 1-.1 1.9.8.8 1.5.7 2.4-.6.7-1 1.5-1.6 1.8-1.3.2.3.5-.2.5-1 0-2-.4-1.9-1.9.5m-5.8.5c0 .8.2 1.5.4 1.5s.6-.7 1-1.5c.3-.8.1-1.5-.4-1.5-.6 0-1 .7-1 1.5m-2.6 3.7c-.4.7-.2.8.4.4.7-.4 2.8.5 4.7 2 2.9 2.2 3.8 2.5 4.8 1.4 1-1 .9-1.2-.3-.8-1.5.5-6.4-2.5-5.5-3.4.2-.2-.5-.4-1.5-.5-1.1-.1-2.3.3-2.6.9"/><path d="M497.6 320.2c.5.8.1.9-1.2.4-1.4-.5-1.6-.4-.7.5.6.6 1.6.8 2.2.5 1.4-.9 1.4-2.6 0-2.6-.5 0-.7.5-.3 1.2M7 325.8c0 .5.7.9 1.5.9s1.2-.4.9-.9c-.3-.4-.9-.8-1.5-.8-.5 0-.9.4-.9.8m-4.4 2.4c.3.5.9.7 1.2.4s1.2 0 2.1.6c1.3 1 1.4 1 .4-.2-1.5-1.6-4.6-2.3-3.7-.8m-.8 2c.5.5 1.6.8 2.3.6.8-.3.3-.7-1-1.1-1.7-.4-2.1-.3-1.3.5m5.3 1.1c-1.3 2.1-1.2 2.1.5.5 1-1 1.6-2 1.3-2.2-.3-.3-1.1.5-1.8 1.7m2.4 1.6c-.3.5 0 1.3.6 1.7.7.4.9.3.5-.4-.3-.5 0-1.3.6-1.5.9-.4 1-.6.1-.6-.6-.1-1.4.3-1.8.8m484 .2c-.4.6-1.3.8-2.1.5-.7-.3-1.6 0-2 .6s-.3.8.4.4c1.9-1.2 2.6 1.7.7 3.1-1.1.7-1.3 1.3-.6 1.3q1.2 0 .6 2.1c-.6 1.8-.5 1.9 1.3 1 2.7-1.4 4.2-3.7 1.9-2.8-.9.3-1.9.1-2.3-.5-.4-.7-.3-.8.4-.4s1.2.2 1.2-.4.3-.9.8-.7c.4.3.7-.8.7-2.4.1-3.2-.1-3.4-1-1.8M1.3 335.8c0 2.2.4 2.9 1 2.3q1.05-1.05 0-3.3c-.9-2-1-2-1 1m2.2-1.8c.3.5.8 1 1.1 1 .2 0 .4-.5.4-1 0-.6-.5-1-1.1-1-.5 0-.7.4-.4 1m2.1 1.5c-.9 2.6-.7 3.2.5 1.2.6-1 .9-2.1.6-2.3-.2-.3-.7.2-1.1 1.1m6 0c-.9 2.6-.7 3.2.5 1.2.6-1 .9-2.1.6-2.3-.2-.3-.7.2-1.1 1.1"/></svg>