<?xml version="1.0" standalone="no"?>
<!DOCTYPE svg PUBLIC "-//W3C//DTD SVG 20010904//EN"
 "http://www.w3.org/TR/2001/REC-SVG-20010904/DTD/svg10.dtd">
<svg version="1.0" xmlns="http://www.w3.org/2000/svg"
 width="500.000000pt" height="500.000000pt" viewBox="0 0 500.000000 500.000000"
 preserveAspectRatio="xMidYMid meet">
<metadata>
Created by potrace 1.14, written by Peter Selinger 2001-2017
</metadata>
<g transform="translate(0.000000,500.000000) scale(0.100000,-0.100000)"
fill="#000000" stroke="none">
<path d="M2350 4421 c0 -5 -15 -8 -32 -6 -18 1 -60 -1 -93 -6 -33 -5 -85 -12
-115 -15 -30 -3 -56 -9 -58 -14 -2 -4 -11 -6 -20 -4 -9 3 -42 -4 -74 -15 -31
-11 -59 -17 -62 -14 -3 3 -13 0 -23 -8 -15 -12 -16 -12 -8 1 8 13 7 13 -9 0
-10 -8 -25 -16 -35 -17 -9 -2 -25 -5 -36 -7 -33 -6 -85 -30 -85 -39 0 -4 -4
-6 -9 -3 -5 4 -22 1 -38 -6 -15 -6 -30 -12 -34 -12 -7 -1 -168 -74 -193 -88
-10 -5 -35 -19 -55 -30 -20 -12 -57 -33 -82 -47 -26 -14 -59 -36 -75 -49 -16
-12 -51 -37 -79 -54 -45 -29 -155 -116 -180 -144 -5 -6 -32 -28 -59 -50 -135
-107 -332 -354 -431 -539 -20 -38 -41 -75 -46 -81 -5 -6 -10 -21 -12 -33 -2
-13 -8 -26 -14 -29 -9 -7 -88 -160 -88 -174 0 -3 -3 -10 -8 -14 -4 -4 -7 -15
-7 -24 0 -10 -11 -42 -24 -71 -14 -30 -26 -65 -28 -79 -2 -14 -8 -32 -13 -40
-5 -8 -10 -19 -11 -25 -1 -5 -5 -26 -8 -45 -3 -19 -7 -44 -9 -55 -1 -11 -6
-23 -11 -26 -4 -4 -10 -28 -13 -55 -2 -26 -8 -53 -13 -60 -6 -6 -7 -14 -3 -18
4 -4 1 -11 -7 -16 -8 -6 -10 -10 -5 -10 12 0 12 -51 0 -69 -4 -8 -10 -37 -12
-65 -2 -28 -6 -56 -8 -63 -2 -6 1 -14 8 -17 7 -2 7 -5 1 -5 -12 -1 -11 -122 1
-142 6 -8 4 -10 -5 -4 -10 6 -12 4 -7 -8 4 -10 1 -17 -6 -17 -8 0 -6 -4 3 -10
13 -9 13 -10 0 -10 -9 0 -11 -3 -5 -8 14 -9 17 -52 4 -52 -6 0 -7 -5 -4 -10 4
-6 12 -7 18 -3 7 4 6 0 -2 -10 -7 -9 -10 -17 -5 -17 5 0 2 -5 -6 -10 -11 -7
-11 -10 -2 -10 8 0 10 -5 5 -12 -10 -18 -13 -39 -4 -33 4 2 9 -17 10 -42 0
-25 6 -52 12 -59 7 -9 5 -15 -8 -23 -17 -10 -17 -10 0 -11 20 0 24 -39 5 -59
-10 -11 -10 -14 0 -18 6 -3 12 -9 12 -15 0 -6 -7 -7 -16 -4 -8 3 -13 2 -10 -3
3 -5 -1 -12 -10 -15 -12 -4 -14 -1 -9 13 4 14 -1 23 -16 31 -15 8 -19 9 -15 1
4 -6 1 -12 -6 -12 -7 -1 -17 -2 -23 -4 -5 -1 -16 -3 -24 -3 -8 -1 -5 -9 10
-22 13 -10 19 -19 12 -20 -6 0 -15 5 -18 10 -3 6 -12 10 -18 10 -7 0 0 -8 15
-18 31 -19 36 -29 13 -29 -8 0 -15 4 -15 9 0 4 -5 8 -11 8 -8 0 -8 -5 1 -15
10 -12 10 -15 -1 -15 -9 0 -10 -3 -4 -8 12 -9 20 -46 8 -39 -11 7 -10 -94 1
-112 6 -10 6 -12 -2 -7 -7 4 -12 2 -12 -3 0 -6 6 -11 13 -11 7 0 8 -3 2 -8
-15 -10 -15 -54 0 -49 6 3 12 -1 12 -8 0 -7 -5 -11 -12 -9 -8 3 -12 -120 -14
-461 l-2 -465 2501 0 2501 0 -2 555 c-2 389 -6 555 -13 555 -8 0 -8 2 0 8 12
8 13 120 1 140 -5 6 -4 12 1 12 6 0 9 11 8 24 -1 19 -4 22 -17 15 -9 -4 -19
-5 -23 -2 -3 3 -6 1 -6 -6 0 -7 7 -11 15 -8 8 4 17 1 21 -5 4 -6 3 -8 -2 -5
-6 3 -16 2 -24 -4 -13 -7 -13 -9 0 -9 12 0 12 -2 1 -9 -9 -6 -10 -11 -2 -15 6
-4 11 -2 11 4 0 6 5 8 11 4 8 -4 6 -10 -7 -17 -13 -7 -19 -7 -22 1 -2 7 -8 10
-12 7 -5 -3 -7 -12 -4 -19 3 -8 0 -17 -6 -21 -9 -6 -9 -10 1 -17 10 -7 8 -8
-8 -3 -15 4 -26 -1 -37 -17 -9 -12 -16 -17 -16 -11 0 6 14 23 32 37 18 14 29
28 25 33 -5 4 -12 2 -16 -6 -6 -10 -10 -9 -15 4 -5 15 -9 14 -38 -5 l-33 -22
30 26 c17 14 34 26 38 26 5 0 5 5 2 10 -4 6 -19 2 -38 -12 -18 -12 -26 -15
-20 -7 7 9 11 19 8 22 -3 4 -2 5 1 2 8 -5 64 26 64 35 0 13 -29 6 -34 -7 -8
-19 -26 -16 -26 5 0 12 3 13 8 5 6 -9 11 -6 20 8 12 19 11 20 -9 14 -17 -6
-20 -4 -13 6 11 17 16 38 15 64 0 19 15 35 33 35 5 0 1 -9 -9 -20 -18 -20 -18
-21 1 -14 18 7 18 7 1 -13 -9 -11 -14 -23 -10 -28 5 -4 2 -5 -6 0 -10 5 -12 4
-7 -4 4 -6 12 -8 18 -5 6 4 8 3 5 -2 -3 -6 3 -10 13 -11 11 -1 22 3 25 8 4 5
11 7 16 3 5 -3 6 -10 3 -16 -5 -7 -2 -8 6 -3 9 6 11 4 5 -6 -8 -12 -6 -12 8 0
11 9 15 21 11 34 -3 11 -2 17 2 14 5 -3 9 5 9 18 0 13 -3 21 -7 18 -5 -2 -8
-11 -8 -18 0 -9 -6 -12 -16 -8 -10 3 -12 8 -5 12 6 4 2 12 -9 19 -12 7 -20 8
-20 2 0 -5 -5 -10 -11 -10 -6 0 -9 6 -6 14 3 8 -1 20 -9 26 -10 9 -14 9 -14 1
0 -6 -4 -11 -9 -11 -11 0 -8 43 4 52 6 5 6 11 -2 19 -8 8 -9 19 -3 35 7 17 6
24 -3 24 -7 0 -8 3 -2 8 15 11 17 32 3 32 -6 0 -3 7 8 16 10 8 14 13 8 10 -14
-7 -26 42 -12 50 4 3 6 10 2 15 -11 18 -10 149 1 149 7 0 7 3 0 8 -15 11 -17
64 -2 55 9 -5 9 -3 1 8 -6 8 -12 21 -12 29 -2 31 -31 206 -37 225 -4 11 -9 27
-12 35 -3 8 -7 24 -9 35 -1 11 -5 34 -9 50 -4 17 -7 38 -8 48 -1 9 -4 17 -7
17 -4 0 -7 6 -8 13 -4 61 -83 269 -153 404 -39 76 -77 145 -84 153 -7 8 -23
35 -36 59 -43 79 -54 97 -66 112 -7 8 -40 48 -73 89 -58 71 -293 314 -330 342
-9 7 -52 40 -95 73 -178 137 -390 261 -540 315 -79 28 -255 86 -315 104 -64
19 -266 57 -325 61 -88 7 -184 7 -193 1 -6 -3 -13 -2 -17 4 -3 5 -11 10 -16
10 -6 0 -8 -3 -6 -7 3 -5 -6 -8 -19 -8 -13 0 -24 3 -24 8 0 4 -5 7 -11 7 -5 0
-7 -6 -3 -12 6 -10 5 -10 -7 -1 -12 10 -18 10 -27 1 -9 -9 -12 -9 -12 0 0 9
-5 10 -17 3 -10 -5 -26 -5 -40 0 -13 5 -23 5 -23 0z m2596 -2689 c-3 -5 4 -16
15 -25 10 -9 19 -22 19 -28 0 -7 -8 -2 -19 9 -18 22 -38 31 -26 13 9 -16 -15
-23 -31 -10 -14 12 -14 15 6 31 23 18 45 24 36 10z m-4776 -106 c0 -11 -19
-15 -25 -6 -3 5 1 10 9 10 9 0 16 -2 16 -4z m-70 -26 c0 -9 -14 -14 -32 -11
-5 0 -8 -4 -8 -10 0 -6 7 -9 15 -6 8 4 17 2 21 -4 3 -6 18 -3 38 9 l32 19 1
-39 c1 -22 7 -45 13 -53 8 -9 8 -15 0 -20 -6 -3 -8 -11 -4 -16 3 -5 10 -6 16
-3 6 4 3 -4 -8 -18 -10 -14 -22 -24 -26 -21 -5 2 -8 -1 -8 -6 0 -6 5 -11 10
-11 6 0 10 -5 10 -11 0 -8 -4 -8 -14 0 -10 8 -16 9 -21 1 -3 -5 -1 -10 4 -10
6 0 11 -5 11 -11 0 -8 -4 -8 -14 0 -12 10 -17 9 -24 -6 -6 -10 -10 -22 -11
-28 -1 -15 -46 -12 -47 3 -3 25 -6 27 -15 7 -8 -17 -8 -16 -4 7 4 19 0 30 -11
36 -14 8 -12 10 10 10 21 0 25 -4 21 -18 -3 -10 -1 -21 5 -25 6 -3 8 -11 5
-16 -4 -5 3 -9 15 -9 12 0 19 4 16 9 -3 5 4 20 15 35 22 28 15 34 -13 12 -10
-7 -15 -16 -11 -19 3 -4 1 -7 -5 -7 -12 0 -11 34 1 46 4 4 7 14 7 23 0 13 -2
14 -9 2 -5 -8 -22 -15 -38 -16 -24 -1 -29 2 -27 19 1 12 3 23 5 26 1 3 2 16 3
30 1 15 7 25 16 25 20 0 20 35 1 59 -15 18 -15 19 0 14 9 -4 22 -2 30 3 19 12
29 11 29 -1z m4780 -60 c-24 -15 -37 -11 -16 5 11 8 22 12 25 9 3 -3 -1 -9 -9
-14z m110 -2 c0 -6 -6 -5 -15 2 -9 8 -15 9 -15 2 0 -6 5 -14 10 -17 6 -3 10
-12 9 -18 0 -9 -2 -8 -6 1 -2 6 -8 10 -12 7 -7 -3 -8 32 -2 42 3 7 31 -11 31
-19z m-43 -45 c2 -6 -1 -14 -6 -18 -7 -4 -8 0 -4 11 4 10 2 15 -3 11 -6 -3
-16 -1 -24 4 -11 7 -9 8 9 6 14 -2 27 -9 28 -14z m-104 -6 c7 3 9 3 5 -2 -4
-4 -2 -15 4 -24 10 -12 7 -12 -8 2 -11 9 -24 14 -28 10 -4 -4 -4 1 0 12 5 11
9 14 12 7 2 -7 9 -9 15 -5z m72 -7 c3 -6 -1 -7 -9 -4 -18 7 -21 14 -7 14 6 0
13 -4 16 -10z m70 -8 c-3 -3 -11 0 -18 7 -9 10 -8 11 6 5 10 -3 15 -9 12 -12z
m-53 -35 c-7 -8 -10 -16 -7 -19 3 -2 -1 -5 -9 -5 -12 0 -11 5 2 23 9 12 19 20
21 18 2 -2 -1 -10 -7 -17z m-86 1 c3 -4 -1 -5 -10 -4 -8 1 -18 5 -22 8 -3 4 1
5 10 4 8 -1 18 -5 22 -8z m49 3 c-9 -8 -36 -10 -30 -2 2 4 11 8 20 8 8 0 13
-3 10 -6z m-4700 -12 c-4 -6 1 -16 11 -24 18 -13 18 -14 1 -21 -10 -3 -21 -4
-24 0 -4 3 2 6 12 6 18 0 18 0 0 13 -15 12 -15 37 1 37 3 0 2 -5 -1 -11z
m4789 -10 c3 -3 -5 -5 -19 -5 -13 0 -22 3 -19 7 4 8 30 6 38 -2z m-4954 -33
c0 -3 -4 -8 -10 -11 -5 -3 -10 -1 -10 4 0 6 5 11 10 11 6 0 10 -2 10 -4z m126
-34 c-17 -16 -18 -16 -5 5 7 12 15 20 18 17 3 -2 -3 -12 -13 -22z m4827 13
c-3 -9 -8 -14 -10 -11 -3 3 -2 9 2 15 9 16 15 13 8 -4z m-4856 -17 c-3 -8 -6
-5 -6 6 -1 11 2 17 5 13 3 -3 4 -12 1 -19z m80 -1 c1 -11 1 -18 0 -16 -2 2 -8
11 -15 20 -9 12 -9 16 1 16 7 0 14 -9 14 -20z m4743 13 c0 -5 -2 -10 -4 -10
-3 0 -8 5 -11 10 -3 6 -1 10 4 10 6 0 11 -4 11 -10z m-4766 -33 c-5 -14 -54
-19 -54 -6 0 5 3 8 8 8 24 -4 42 2 36 13 -4 7 -3 8 4 4 6 -4 9 -12 6 -19z
m4686 13 c0 -5 -5 -10 -11 -10 -5 0 -7 5 -4 10 3 6 8 10 11 10 2 0 4 -4 4 -10z
m-4822 -22 c-2 -6 -10 -13 -16 -14 -7 -1 -8 0 -2 3 5 2 8 9 4 14 -3 5 0 9 6 9
7 0 10 -5 8 -12z m23 -40 c-10 -11 -11 -9 -5 6 6 15 4 17 -6 11 -9 -6 -11 -4
-5 4 5 9 10 10 18 2 8 -8 7 -14 -2 -23z m53 24 c2 -4 0 -14 -6 -22 -8 -12 -9
-12 -5 2 3 9 1 19 -6 22 -9 3 -9 5 0 5 6 1 14 -3 17 -7z m96 -22 c8 -5 11 -10
5 -10 -5 0 -17 5 -25 10 -8 5 -10 10 -5 10 6 0 17 -5 25 -10z m4751 -17 c13
-16 12 -17 -3 -4 -17 13 -22 21 -14 21 2 0 10 -8 17 -17z m-4877 -1 c3 -5 -1
-9 -9 -9 -8 0 -12 4 -9 9 3 4 7 8 9 8 2 0 6 -4 9 -8z m69 -16 c3 3 4 -1 3 -10
-1 -8 -6 -19 -10 -23 -4 -4 -6 -1 -4 7 2 8 -2 14 -8 13 -6 -1 -11 5 -11 12 0
10 4 12 12 5 7 -5 14 -7 18 -4z m-133 -6 c0 -5 -5 -10 -11 -10 -5 0 -7 5 -4
10 3 6 8 10 11 10 2 0 4 -4 4 -10z m75 -89 c3 -5 2 -12 -3 -15 -5 -3 -9 1 -9
9 0 17 3 19 12 6z"/>
<path d="M4917 1713 c-10 -9 -9 -23 1 -23 5 0 9 7 9 15 0 17 -1 18 -10 8z"/>
<path d="M140 1555 c5 -7 7 -15 3 -18 -10 -11 -23 -8 -20 4 1 6 -8 12 -20 14
-13 1 -21 -1 -18 -3 6 -6 -37 -38 -48 -34 -12 4 -3 -22 13 -36 8 -8 10 -11 4
-8 -16 8 -35 -17 -25 -33 6 -9 11 -10 15 -2 4 6 2 11 -4 11 -6 0 -8 5 -4 11 4
8 11 4 19 -11 11 -21 12 -21 19 -4 7 18 8 18 21 0 13 -17 12 -21 -3 -32 -9 -8
-12 -14 -5 -14 6 0 15 5 18 11 4 6 13 8 20 5 8 -3 17 3 20 14 3 11 9 19 13 19
19 -3 23 2 13 15 -8 10 -9 16 -2 21 7 4 6 13 -3 28 -8 12 -13 29 -11 38 1 9
-3 16 -11 16 -9 0 -11 -4 -4 -12z m-24 -14 c-3 -5 1 -14 9 -21 12 -10 15 -10
15 1 0 8 6 5 14 -7 9 -11 11 -23 5 -30 -5 -6 -5 -15 1 -22 7 -9 7 -9 -2 -2
-14 12 -28 13 -27 3 3 -19 -2 -33 -12 -33 -6 0 -7 5 -2 13 13 21 12 36 -3 30
-8 -3 -11 -9 -8 -15 3 -5 -3 -4 -15 4 l-21 13 22 11 21 12 -21 11 c-15 8 -23
8 -28 -1 -4 -6 -3 -8 4 -4 6 3 13 2 17 -4 3 -5 -3 -10 -14 -10 -31 0 -25 18
12 40 36 22 41 24 33 11z"/>
<path d="M103 1512 c10 -10 15 -21 12 -24 -3 -2 3 -4 13 -3 25 1 31 18 7 21
-11 2 -21 8 -23 13 -2 6 -8 11 -14 11 -6 0 -4 -8 5 -18z"/>
<path d="M4950 2121 c0 -6 4 -13 10 -16 6 -3 7 1 4 9 -7 18 -14 21 -14 7z"/>
<path d="M4909 2083 c-13 -16 -12 -17 4 -4 16 13 21 21 13 21 -2 0 -10 -8 -17
-17z"/>
<path d="M4950 1895 c5 -7 7 -14 4 -18 -3 -3 1 -4 10 -3 8 1 19 6 23 10 4 4 1
6 -7 4 -8 -1 -14 2 -13 8 1 6 -5 11 -12 11 -10 0 -12 -4 -5 -12z"/>
<path d="M4901 1874 c0 -11 3 -14 6 -6 3 7 2 16 -1 19 -3 4 -6 -2 -5 -13z"/>
<path d="M4926 1877 c3 -10 9 -15 12 -12 3 3 0 11 -7 18 -10 9 -11 8 -5 -6z"/>
<path d="M4968 1840 c-7 -11 -16 -20 -21 -20 -4 0 -5 5 -1 12 5 7 3 8 -5 3
-10 -5 -10 -10 -1 -19 8 -8 15 -7 24 6 7 10 15 16 18 13 2 -3 5 2 5 10 0 20
-4 19 -19 -5z"/>
<path d="M4910 1835 c0 -8 2 -15 4 -15 2 0 6 7 10 15 3 8 1 15 -4 15 -6 0 -10
-7 -10 -15z"/>
<path d="M4884 1798 c-4 -7 -2 -8 4 -4 7 4 28 -5 47 -20 29 -22 38 -25 48 -14
10 10 9 12 -3 8 -15 -5 -64 25 -55 34 2 2 -5 4 -15 5 -11 1 -23 -3 -26 -9z"/>
<path d="M4976 1798 c5 -8 1 -9 -12 -4 -14 5 -16 4 -7 -5 6 -6 16 -8 22 -5 14
9 14 26 0 26 -5 0 -7 -5 -3 -12z"/>
<path d="M70 1742 c0 -5 7 -9 15 -9 8 0 12 4 9 9 -3 4 -9 8 -15 8 -5 0 -9 -4
-9 -8z"/>
<path d="M26 1718 c3 -5 9 -7 12 -4 3 3 12 0 21 -6 13 -10 14 -10 4 2 -15 16
-46 23 -37 8z"/>
<path d="M18 1698 c5 -5 16 -8 23 -6 8 3 3 7 -10 11 -17 4 -21 3 -13 -5z"/>
<path d="M71 1687 c-13 -21 -12 -21 5 -5 10 10 16 20 13 22 -3 3 -11 -5 -18
-17z"/>
<path d="M95 1671 c-3 -5 0 -13 6 -17 7 -4 9 -3 5 4 -3 5 0 13 6 15 9 4 10 6
1 6 -6 1 -14 -3 -18 -8z"/>
<path d="M4935 1669 c-4 -6 -13 -8 -21 -5 -7 3 -16 0 -20 -6 -4 -6 -3 -8 4 -4
19 12 26 -17 7 -31 -11 -7 -13 -13 -6 -13 8 0 10 -7 6 -21 -6 -18 -5 -19 13
-10 27 14 42 37 19 28 -9 -3 -19 -1 -23 5 -4 7 -3 8 4 4 7 -4 12 -2 12 4 0 6
3 9 8 7 4 -3 7 8 7 24 1 32 -1 34 -10 18z"/>
<path d="M13 1642 c0 -22 4 -29 10 -23 7 7 7 18 0 33 -9 20 -10 20 -10 -10z"/>
<path d="M35 1660 c3 -5 8 -10 11 -10 2 0 4 5 4 10 0 6 -5 10 -11 10 -5 0 -7
-4 -4 -10z"/>
<path d="M56 1645 c-9 -26 -7 -32 5 -12 6 10 9 21 6 23 -2 3 -7 -2 -11 -11z"/>
<path d="M116 1645 c-9 -26 -7 -32 5 -12 6 10 9 21 6 23 -2 3 -7 -2 -11 -11z"/>
</g>
</svg>
